HIERARCHY
ROOT Hips
{
  OFFSET -125.086 92.215 135.881
  CHANNELS 6 Xposition Yposition Zposition Zrotation Xrotation Yrotation
  JOINT LeftUpLeg
  {
    OFFSET 8.64259 1.95398 -2.38835
    CHANNELS 3 Zrotation Xrotation Yrotation
    JOINT LeftLeg
    {
      OFFSET 43.7702 0 0
      CHANNELS 3 Zrotation Xrotation Yrotation
      JOINT LeftFoot
      {
        OFFSET 40.6238 0 0
        CHANNELS 3 Zrotation Xrotation Yrotation
        JOINT LeftToeBase
        {
          OFFSET 12.7242 0 0
          CHANNELS 3 Zrotation Xrotation Yrotation
          End Site
          {
            OFFSET 0 0 0
          }
        }
      }
    }
  }
  JOINT RightUpLeg
  {
    OFFSET -8.2249 1.95398 -2.59336
    CHANNELS 3 Zrotation Xrotation Yrotation
    JOINT RightLeg
    {
      OFFSET 43.5653 0 0
      CHANNELS 3 Zrotation Xrotation Yrotation
      JOINT RightFoot
      {
        OFFSET 40.6238 0 0
        CHANNELS 3 Zrotation Xrotation Yrotation
        JOINT RightToeBase
        {
          OFFSET 12.7242 0 0
          CHANNELS 3 Zrotation Xrotation Yrotation
          End Site
          {
            OFFSET 0 0 0
          }
        }
      }
    }
  }
  JOINT Spine
  {
    OFFSET 0.165834 0.87714 6.61349
    CHANNELS 3 Zrotation Xrotation Yrotation
    JOINT Spine1
    {
      OFFSET 7.38963 1.71661e-005 0
      CHANNELS 3 Zrotation Xrotation Yrotation
      JOINT Spine2
      {
        OFFSET 11.9445 1.14441e-005 0
        CHANNELS 3 Zrotation Xrotation Yrotation
        JOINT Spine3
        {
          OFFSET 14.7254 4.19617e-005 0
          CHANNELS 3 Zrotation Xrotation Yrotation
          JOINT Spine4
          {
            OFFSET 10.9679 0 0
            CHANNELS 3 Zrotation Xrotation Yrotation
            JOINT RightShoulder
            {
              OFFSET 2.46616 -1.6653 3.69651
              CHANNELS 3 Zrotation Xrotation Yrotation
              JOINT RightArm
              {
                OFFSET 13.0012 0 0
                CHANNELS 3 Zrotation Xrotation Yrotation
                JOINT RightForeArm
                {
                  OFFSET 28.7848 1.52588e-005 0
                  CHANNELS 3 Zrotation Xrotation Yrotation
                  JOINT RightHand
                  {
                    OFFSET 26.5688 1.52588e-005 0
                    CHANNELS 3 Zrotation Xrotation Yrotation
                    End Site
                    {
                      OFFSET 0 0 0
                    }
                  }
                }
              }
            }
            JOINT LeftShoulder
            {
              OFFSET 2.38034 -1.29275 -3.7523
              CHANNELS 3 Zrotation Xrotation Yrotation
              JOINT LeftArm
              {
                OFFSET 16.3182 6.10352e-005 0
                CHANNELS 3 Zrotation Xrotation Yrotation
                JOINT LeftForeArm
                {
                  OFFSET 27.0901 0 0
                  CHANNELS 3 Zrotation Xrotation Yrotation
                  JOINT LeftHand
                  {
                    OFFSET 24.5451 1.52588e-005 0
                    CHANNELS 3 Zrotation Xrotation Yrotation
                    End Site
                    {
                      OFFSET 0 0 0
                    }
                  }
                }
              }
            }
            JOINT Neck
            {
              OFFSET 5.0226 -0.0266342 0
              CHANNELS 3 Zrotation Xrotation Yrotation
              JOINT Head
              {
                OFFSET 6.69363 2.86102e-005 0
                CHANNELS 3 Zrotation Xrotation Yrotation
                End Site
                {
                  OFFSET 0 0 0
                }
              }
            }
          }
        }
      }
    }
  }
}
MOTION
Frames:	15
Frame Time:	0.0416667
280.72 48.4009 -277.498 -91.4943 -68.2361 -84.2569 175.66 -44.3053 102.203 -1.37389 29.7789 0.166827 74.788 11.4682 -7.81633 103.369 -54.437 -71.3075 134.846 64.7018 115.072 -0.23701 -68.4012 0.0205556 29.7611 46.711 5.48816 124.959 49.3304 71.8809 -5.10276 6.52669 -82.4747 13.7467 -6.49019 15.9132 1.98762 -5.79424 16.1742 -20.068 -10.9292 13.2994 -0.0553252 -10.9292 13.2993 -173.068 -45.9584 30.864 -148.695 78.8709 136.57 129.641 9.00691 -101.291 -25.5989 24.799 -97.6688 -78.7762 14.0962 105.28 -77.1527 -40.6519 -117.612 -174.89 -70.6391 162.199 37.9645 31.0143 72.5748 -87.746 28.5612 -20.4309 86.9652 -4.0932 -19.878 
270.521 67.2494 -266.408 -83.9199 -63.7526 -78.0283 -179.256 -37.6896 102.454 -3.59306 25.9681 0.730422 69.4581 11.2887 -10.8912 92.8659 -57.217 -87.3392 149.054 55.5657 106.278 -1.14422 -58.1323 0.128075 38.2069 28.5435 1.65887 125.795 48.5597 70.415 -2.25037 7.3136 -89.1221 12.2899 -4.05612 2.20913 0.623089 -3.95498 2.38564 -21.9594 -4.53221 0.885992 -1.94673 -4.5322 0.885981 -168.366 -69.5278 19.6953 -160.059 76.4868 119.074 151.287 -19.7942 -179.984 -23.5 13.3078 -65.1142 -60.6973 -66.8327 118.466 101.962 29.2131 -52.1819 9.55565 -5.23962 -84.2384 86.2804 -19.3496 -24.0835 -79.0845 -4.07521 -18.8507 107.109 -18.8989 -2.35393 
255.593 87.1191 -251.882 -79.3927 -58.315 -77.4255 -173.698 -27.3016 97.9841 -18.8454 28.8384 3.66122 62.1511 6.20454 -4.86786 46.839 -39.7424 -145.272 167.174 46.1408 94.0496 -5.28623 -9.80367 1.27476 46.904 0.241837 26.3317 151.021 38.6029 43.9062 -1.57565 8.35671 -89.52 10.1747 -2.92046 1.20824 -1.49369 -2.86444 1.33567 -24.0547 -3.14849 0.273853 -4.04201 -3.14847 0.273849 122.769 -67.0714 -55.9496 7.40292 -13.0366 21.8422 7.31013 -29.3427 -20.1817 -11.5916 3.20983 -40.759 -80.7572 -39.6642 91.9969 16.5155 18.1152 -29.2738 -2.719 -2.23854 -85.7015 36.9513 -4.19884 -16.5727 -65.7255 5.55491 -30.2521 109.506 3.75295 6.55107 
237.441 95.8914 -233.811 -87.2472 -55.8302 -87.3477 -178.385 -7.91565 92.6438 -74.3153 10.9137 7.0897 55.9436 1.83117 2.12345 -128.41 42.8051 8.20929 172.588 32.0937 88.7841 -12.1622 -0.312527 4.58955 38.6837 6.00194 35.0232 102.731 -13.5824 -7.4434 -1.24037 8.58528 -89.9769 9.72364 -2.46227 0.236427 -1.94477 -2.44949 0.344622 -24.4997 -2.41939 -0.514951 -4.48707 -2.41938 -0.514953 109.14 -51.6723 -71.5254 25.5887 -13.6415 27.6156 -14.6191 -15.7999 -51.3074 -5.91275 0.725093 -23.0286 -78.1652 -37.9607 96.2584 -11.5585 14.8741 -18.7154 8.93824 -0.845331 -86.0252 18.2499 -1.13282 -11.1242 -56.8105 3.68707 -31.1831 92.6849 16.1225 20.9981 
218.757 92.0695 -216.033 -94.3507 -51.4941 -86.8851 -179.704 12.6957 90.7581 -110.726 4.32936 4.03293 47.8605 1.12579 9.24143 24.2114 -8.58269 13.7113 173.421 29.1708 98.3832 -45.235 -11.5501 4.90089 59.6505 0.154624 12.0117 37.4886 -2.33573 -5.68508 -0.579705 9.11443 -91.0813 8.62814 -1.63529 -2.04128 -3.0432 -1.72353 -1.96737 -25.5694 -0.946384 -2.43818 -5.55673 -0.946358 -2.43818 110.464 -53.6248 -69.8092 17.1784 -14.905 4.36568 -11.9338 -13.8302 -54.4724 -12.7852 -0.0564462 -6.05347 -76.0524 -43.1256 99.8161 -17.9847 8.61806 -8.05188 11.6163 10.8586 -62.2738 15.3858 -2.25803 -17.7787 -22.4074 0.20893 -34.6272 41.6414 16.3833 43.0065 
200.156 89.9582 -197.767 -90.5952 -48.3545 -81.8977 172.128 41.3547 96.6688 -105.969 1.5831 4.12777 52.2371 4.56298 11.9541 53.8816 -1.48318 6.25686 175.657 15.7519 102.414 -52.7846 -14.347 4.26334 77.968 -8.5103 6.66126 40.8603 -1.88716 -0.776361 0.188176 8.90077 -91.495 9.05913 -0.292373 -2.93995 -2.61507 -0.421419 -2.92427 -25.1242 0.604312 -2.89203 -5.11157 0.604342 -2.89202 109.185 -51.0669 -71.3736 16.5648 -17.2346 -15.632 -14.0549 -8.57935 -66.5765 -17.6032 -0.493911 -1.96673 -74.8803 -47.2544 101.523 -13.2115 9.34523 -0.216527 3.34828 21.1183 -42.8845 11.8981 -1.2693 -13.7657 23.8094 -1.59996 -12.2375 -15.4383 0.498131 21.5425 
179.394 95.0806 -178.554 -82.8232 -44.9011 -83.8416 177.707 45.8474 88.483 -51.6367 9.91002 2.80478 49.9605 -0.665171 7.7636 60.2036 -1.65613 6.43429 176.719 -3.63628 94.8008 -29.3438 -11.992 0.122119 55.1315 3.1284 19.342 47.9358 -2.41697 4.83246 0.846011 8.12543 -90.1473 10.613 1.61764 -0.425396 -1.05708 1.59737 -0.496193 -23.5995 1.67062 0.0805753 -3.58687 1.67062 0.0805647 109.671 -49.7093 -70.4343 14.464 -27.9269 -17.1439 -14.0859 -0.355428 -86.6033 -17.0878 0.226141 -6.81969 -78.4012 -41.1703 95.9175 -18.0894 12.3642 11.7882 -0.103782 23.5649 -38.9278 12.322 -1.40563 -14.5484 30.4408 -1.89399 -4.9744 -25.9244 -1.25405 7.23965 
158.886 95.8874 -159.549 -85.5695 -44.2503 -86.2362 -178.422 35.244 86.8459 -21.3419 10.7102 -1.20199 42.9889 -6.78605 -0.0260342 59.074 -1.71592 6.16508 177.173 -7.10814 97.2516 -52.7036 -17.8212 -1.93668 37.2954 8.07422 18.3482 32.8971 -0.750267 0.259864 0.827746 8.31061 -89.8578 10.2494 1.71427 0.131462 -1.42046 1.71839 0.0558552 -23.9636 1.59547 0.640717 -3.95098 1.5955 0.64073 110.194 -49.8092 -69.6341 13.9864 -35.8106 -10.8522 -18.6495 9.42877 -89.4309 -16.7447 0.300331 -7.35933 -79.2909 -41.4052 94.4114 -20.5048 11.7863 13.7571 0.048747 22.6766 -39.3832 10.7011 -1.35977 -15.3947 29.3993 -1.57179 -3.44464 -25.8803 -1.39614 6.39157 
139.708 90.785 -141.751 -95.4887 -46.5358 -98.3353 -174.932 26.5358 77.8014 -48.3886 15.6633 -2.26463 61.6378 7.16082 18.4598 47.8163 -1.43505 2.84904 177.806 11.3868 85.4623 -109.792 -18.0086 -3.97627 40.9612 6.28217 12.5498 31.5816 -0.0572983 -5.09522 0.0827865 9.3014 -89.207 8.26825 0.513625 1.54476 -3.40329 0.581119 1.52067 -25.932 0.0256361 1.62766 -5.91937 0.0256446 1.62767 111.354 -52.3243 -68.2717 19.4572 -30.3329 -0.446277 -17.977 -3.58096 -82.6194 -18.0461 -0.0880703 -4.78925 -77.3285 -44.5392 97.6929 -16.2992 7.1036 -6.89993 5.06793 24.239 -40.1155 11.3605 -1.18998 -13.5267 28.9331 -2.03421 -9.87407 -22.4377 -0.0757827 12.3231 
119.362 88.8425 -123.755 -94.1349 -54.6595 -97.3546 -177.397 9.65917 80.604 -53.799 25.5917 2.22514 71.8772 17.6713 26.6987 55.9209 -1.51917 6.47026 178.233 44.5893 84.4588 -113.6 -14.2371 -3.81379 42.7464 5.11362 14.7482 40.8032 -1.90365 -3.52801 -1.13128 8.9766 -89.3731 8.93159 -1.97723 1.37606 -2.73868 -1.91473 1.46174 -25.2839 -2.29932 0.718012 -5.2712 -2.29932 0.718013 113.571 -53.8421 -65.2564 21.2633 -20.5482 10.8308 -23.7395 -12.478 -68.5771 -17.7257 -0.868345 0.49652 -77.2162 -44.0128 97.8867 -19.9284 3.36998 -27.0031 9.19693 14.6344 -49.1627 15.0502 -1.67465 -14.6815 22.5405 -1.07982 -11.6075 -21.0053 0.735272 14.071 
96.7318 95.4502 -102.269 -87.8537 -57.971 -86.5736 -176.885 -8.55679 89.7214 -39.1763 22.0842 10.2132 49.6541 -3.90038 -1.55592 65.8274 -2.21702 4.9216 173.756 44.8496 87.3018 -61.2894 -14.4427 -0.681892 46.4196 4.31762 13.2519 48.4273 -3.26892 -4.15001 -1.62447 7.97386 -90.2402 10.92 -3.34554 -0.176353 -0.746643 -3.35005 -0.0287682 -23.3128 -3.13768 -1.17467 -3.30011 -3.13768 -1.17465 111.202 -50.3952 -68.1743 26.7797 -16.6368 29.1774 -25.7781 -14.6889 -66.4661 -12.8293 -0.22916 -3.08521 -76.2951 -43.1942 99.4184 -18.1496 8.34404 -28.3155 10.232 3.32843 -71.8276 12.982 -1.63601 -15.759 14.8103 0.691881 -13.3937 -23.0271 1.41236 16.7864 
74.6107 97.4873 -80.9973 -90.4492 -58.4477 -89.7797 -176.229 -12.6748 93.6802 -55.8597 15.1013 8.75204 42.8898 -5.93119 -0.371884 54.2228 -1.3204 7.53977 175.847 28.6804 83.7119 -8.30581 -5.8528 1.03429 33.113 8.34588 20.6403 70.4385 -6.65842 0.00860295 -1.69072 7.75252 -90.2064 11.3701 -3.46046 -0.058929 -0.296255 -3.45971 0.0936169 -22.8657 -3.28263 -1.09738 -2.85307 -3.28263 -1.09738 109.777 -49.5597 -70.2441 29.5394 -14.1458 35.9541 -20.4886 -13.0081 -63.5939 -12.776 -0.129094 -4.09619 -76.5388 -41.3159 99.0648 -9.5993 14.8239 -20.6672 5.96226 -0.663872 -92.5309 16.1631 -1.90324 -15.6312 10.8506 0.905772 -13.1148 -22.2051 1.24093 16.8896 
54.8514 92.2236 -61.0905 -98.7605 -52.2181 -92.7111 -175.807 -2.65903 97.0367 -97.55 6.32882 5.49374 45.659 -2.09014 7.02805 53.736 -1.82239 2.92722 172.722 28.17 89.3126 -29.9003 -14.932 4.10516 47.1151 4.52323 11.6119 42.2777 -2.08492 -1.49548 -0.940237 8.36201 -90.8419 10.1368 -2.25717 -1.49351 -1.53295 -2.32074 -1.3927 -24.071 -1.70403 -2.10276 -4.05838 -1.70402 -2.10277 109.899 -49.4803 -70.0442 23.2552 -18.0285 23.072 -17.4073 -12.4174 -62.1561 -13.0243 -0.24757 -3.06702 -75.0238 -44.0348 101.459 -13.3314 13.5774 -5.50488 3.96386 0.151988 -86.6117 15.0881 -1.63828 -14.4657 12.783 1.77078 -8.30243 -21.0072 1.43924 15.5817 
35.3001 88.7697 -42.406 -97.1788 -53.2695 -87.6252 176.791 22.4956 94.2223 -114.665 8.36534 3.74489 48.6468 1.54758 8.20471 52.2158 -1.66494 3.67321 171.835 23.0678 95.5867 -55.5781 -16.5493 4.42215 68.6027 -4.95443 4.11111 46.1701 -2.92487 -3.83762 -0.278469 8.18621 -91.5406 10.4757 -1.26127 -2.94952 -1.19784 -1.38983 -2.89121 -23.7068 -0.317028 -3.19197 -3.69412 -0.317039 -3.19198 110.771 -50.7624 -68.8975 16.2123 -16.5847 5.49729 -14.3267 -12.4986 -59.6911 -14.0694 -0.667195 0.331012 -73.578 -46.9362 103.592 -21.558 4.47556 -0.725601 14.4762 16.0128 -56.6729 10.5347 -1.05414 -12.8734 17.5035 0.497763 -6.41517 -23.5205 -0.282694 15.1089 
14.6568 93.8148 -22.757 -99.5088 -51.1643 -94.0761 178.53 31.6608 87.1878 -77.7412 7.18665 3.88997 51.0715 1.55725 9.23036 57.0909 -2.71907 -2.40648 175.312 -0.190277 89.7779 -43.3934 -10.0958 -0.0680163 61.3696 1.05096 15.1192 55.4855 -4.49553 -3.47751 0.369817 8.01711 -90.6062 10.8434 0.455758 -1.26784 -0.828217 0.399533 -1.28668 -23.3594 0.815716 -1.07231 -3.34671 0.815705 -1.07231 109.97 -51.0951 -70.1749 12.8459 -22.9645 -0.96104 -12.2987 -10.4281 -61.2531 -15.206 -0.593308 -0.710572 -74.9983 -45.4101 101.429 -22.7813 2.09099 7.01594 6.69887 28.8219 -34.9863 12.388 -0.937512 -11.0897 13.0883 -1.4763 -7.48072 -22.4691 -0.917323 8.57992 
